<svg xmlns="http://www.w3.org/2000/svg" xmlns:xlink="http://www.w3.org/1999/xlink" width="70" zoomAndPan="magnify" viewBox="0 0 52.5 52.499999" height="70" preserveAspectRatio="xMidYMid meet" version="1.0"><defs><clipPath id="7a63e35229"><path d="M 14 49 L 16 49 L 16 50.195312 L 14 50.195312 Z M 14 49 " clip-rule="nonzero"/></clipPath><clipPath id="f9b87296f5"><path d="M 25 2.195312 L 27 2.195312 L 27 13 L 25 13 Z M 25 2.195312 " clip-rule="nonzero"/></clipPath><clipPath id="32667f10c7"><path d="M 1.355469 18 L 4 18 L 4 22 L 1.355469 22 Z M 1.355469 18 " clip-rule="nonzero"/></clipPath><clipPath id="cd29b84b63"><path d="M 1.355469 20 L 4 20 L 4 24 L 1.355469 24 Z M 1.355469 20 " clip-rule="nonzero"/></clipPath><clipPath id="bcef7730e4"><path d="M 38 46 L 43 46 L 43 50.195312 L 38 50.195312 Z M 38 46 " clip-rule="nonzero"/></clipPath><clipPath id="2ec628b3f0"><path d="M 49 35 L 50.855469 35 L 50.855469 40 L 49 40 Z M 49 35 " clip-rule="nonzero"/></clipPath><clipPath id="ae5458e143"><path d="M 48 37 L 50.855469 37 L 50.855469 38 L 48 38 Z M 48 37 " clip-rule="nonzero"/></clipPath></defs><path fill="#112a4a" d="M 6.484375 8.386719 C 6.269531 8.386719 6.09375 8.214844 6.09375 8 C 6.09375 7.789062 6.265625 7.613281 6.476562 7.613281 L 6.484375 7.613281 C 6.695312 7.613281 6.871094 7.789062 6.871094 8 C 6.871094 8.214844 6.695312 8.386719 6.484375 8.386719 Z M 6.484375 8.386719 " fill-opacity="1" fill-rule="nonzero"/><path fill="#112a4a" d="M 42.742188 41.679688 C 42.53125 41.679688 42.355469 41.503906 42.355469 41.292969 C 42.355469 41.078125 42.523438 40.90625 42.734375 40.90625 L 42.742188 40.90625 C 42.957031 40.90625 43.128906 41.078125 43.128906 41.292969 C 43.128906 41.503906 42.957031 41.679688 42.742188 41.679688 Z M 42.742188 41.679688 " fill-opacity="1" fill-rule="nonzero"/><g clip-path="url(#7a63e35229)"><path fill="#112a4a" d="M 14.96875 50.195312 C 14.757812 50.195312 14.582031 50.023438 14.582031 49.808594 C 14.582031 49.59375 14.75 49.421875 14.960938 49.421875 L 14.96875 49.421875 C 15.183594 49.421875 15.355469 49.59375 15.355469 49.808594 C 15.355469 50.023438 15.183594 50.195312 14.96875 50.195312 Z M 14.96875 50.195312 " fill-opacity="1" fill-rule="nonzero"/></g><path fill="#112a4a" d="M 6.484375 38.582031 C 6.269531 38.582031 6.09375 38.410156 6.09375 38.195312 C 6.09375 37.980469 6.265625 37.808594 6.476562 37.808594 L 6.484375 37.808594 C 6.695312 37.808594 6.871094 37.980469 6.871094 38.195312 C 6.871094 38.410156 6.695312 38.582031 6.484375 38.582031 Z M 6.484375 38.582031 " fill-opacity="1" fill-rule="nonzero"/><path fill="#112a4a" d="M 48.914062 13.84375 C 48.703125 13.84375 48.527344 13.671875 48.527344 13.457031 C 48.527344 13.242188 48.695312 13.070312 48.90625 13.070312 L 48.914062 13.070312 C 49.128906 13.070312 49.300781 13.242188 49.300781 13.457031 C 49.300781 13.671875 49.128906 13.84375 48.914062 13.84375 Z M 48.914062 13.84375 " fill-opacity="1" fill-rule="nonzero"/><path fill="#112a4a" d="M 26.132812 47.097656 C 16.773438 47.097656 9.160156 39.457031 9.160156 30.066406 C 9.160156 20.675781 16.773438 13.035156 26.132812 13.035156 C 30.789062 13.035156 35.136719 14.890625 38.363281 18.257812 C 38.511719 18.414062 38.507812 18.65625 38.355469 18.804688 C 38.203125 18.953125 37.957031 18.949219 37.808594 18.792969 C 34.726562 15.578125 30.578125 13.808594 26.132812 13.808594 C 17.199219 13.808594 9.933594 21.101562 9.933594 30.066406 C 9.933594 39.03125 17.199219 46.324219 26.132812 46.324219 C 35.066406 46.324219 42.335938 39.03125 42.335938 30.066406 C 42.335938 27.832031 41.890625 25.667969 41.015625 23.636719 C 40.933594 23.4375 41.023438 23.210938 41.21875 23.125 C 41.414062 23.039062 41.640625 23.132812 41.726562 23.328125 C 42.640625 25.460938 43.105469 27.726562 43.105469 30.066406 C 43.105469 39.457031 35.492188 47.097656 26.132812 47.097656 Z M 26.132812 47.097656 " fill-opacity="1" fill-rule="nonzero"/><path fill="#112a4a" d="M 30.0625 45.226562 C 30.039062 45.226562 30.011719 45.222656 29.988281 45.21875 C 29.777344 45.175781 29.644531 44.972656 29.683594 44.761719 C 29.699219 44.6875 31.21875 36.992188 31.21875 30.066406 C 31.21875 23.136719 29.699219 15.445312 29.683594 15.367188 C 29.644531 15.15625 29.777344 14.953125 29.988281 14.914062 C 30.191406 14.871094 30.398438 15.003906 30.441406 15.214844 C 30.457031 15.292969 31.992188 23.058594 31.992188 30.066406 C 31.992188 37.070312 30.457031 44.839844 30.441406 44.914062 C 30.40625 45.101562 30.242188 45.226562 30.0625 45.226562 Z M 30.0625 45.226562 " fill-opacity="1" fill-rule="nonzero"/><path fill="#112a4a" d="M 33.921875 43.679688 C 33.878906 43.679688 33.835938 43.671875 33.792969 43.65625 C 33.589844 43.585938 33.484375 43.363281 33.554688 43.160156 C 33.578125 43.097656 35.847656 36.578125 35.847656 30.066406 C 35.847656 23.554688 33.578125 17.035156 33.554688 16.96875 C 33.484375 16.769531 33.589844 16.546875 33.792969 16.476562 C 33.992188 16.402344 34.210938 16.507812 34.285156 16.710938 C 34.308594 16.777344 36.621094 23.417969 36.621094 30.066406 C 36.621094 36.714844 34.308594 43.355469 34.285156 43.421875 C 34.226562 43.578125 34.078125 43.679688 33.921875 43.679688 Z M 33.921875 43.679688 " fill-opacity="1" fill-rule="nonzero"/><path fill="#112a4a" d="M 37.777344 40.597656 C 37.722656 40.597656 37.667969 40.585938 37.617188 40.5625 C 37.421875 40.472656 37.339844 40.242188 37.425781 40.046875 C 37.449219 40 39.707031 35.023438 39.707031 30.066406 C 39.707031 28.550781 39.496094 26.886719 39.085938 25.125 C 39.039062 24.914062 39.167969 24.707031 39.375 24.65625 C 39.589844 24.609375 39.789062 24.738281 39.839844 24.945312 C 40.261719 26.769531 40.476562 28.488281 40.476562 30.066406 C 40.476562 35.199219 38.222656 40.164062 38.128906 40.371094 C 38.0625 40.515625 37.921875 40.597656 37.777344 40.597656 Z M 37.777344 40.597656 " fill-opacity="1" fill-rule="nonzero"/><path fill="#112a4a" d="M 20.917969 26.96875 C 20.910156 26.96875 20.902344 26.96875 20.894531 26.96875 C 20.679688 26.957031 20.519531 26.773438 20.53125 26.558594 C 20.882812 20.710938 21.960938 15.269531 21.96875 15.214844 C 22.011719 15.003906 22.21875 14.871094 22.425781 14.914062 C 22.632812 14.953125 22.769531 15.15625 22.726562 15.367188 C 22.714844 15.421875 21.648438 20.8125 21.300781 26.605469 C 21.289062 26.8125 21.117188 26.96875 20.917969 26.96875 Z M 20.917969 26.96875 " fill-opacity="1" fill-rule="nonzero"/><path fill="#112a4a" d="M 22.347656 45.226562 C 22.167969 45.226562 22.007812 45.101562 21.96875 44.914062 C 21.960938 44.863281 20.882812 39.421875 20.53125 33.574219 C 20.519531 33.359375 20.679688 33.175781 20.894531 33.164062 C 21.128906 33.144531 21.289062 33.3125 21.300781 33.527344 C 21.648438 39.320312 22.714844 44.710938 22.726562 44.761719 C 22.769531 44.972656 22.632812 45.175781 22.425781 45.21875 C 22.398438 45.222656 22.375 45.226562 22.347656 45.226562 Z M 22.347656 45.226562 " fill-opacity="1" fill-rule="nonzero"/><path fill="#112a4a" d="M 18.492188 43.679688 C 18.332031 43.679688 18.183594 43.578125 18.128906 43.421875 C 18.105469 43.355469 15.789062 36.714844 15.789062 30.066406 C 15.789062 23.417969 18.105469 16.777344 18.128906 16.710938 C 18.199219 16.511719 18.417969 16.40625 18.621094 16.476562 C 18.820312 16.546875 18.925781 16.765625 18.855469 16.96875 C 18.832031 17.035156 16.5625 23.554688 16.5625 30.066406 C 16.5625 36.578125 18.832031 43.097656 18.855469 43.160156 C 18.925781 43.363281 18.820312 43.585938 18.621094 43.65625 C 18.578125 43.671875 18.535156 43.679688 18.492188 43.679688 Z M 18.492188 43.679688 " fill-opacity="1" fill-rule="nonzero"/><path fill="#112a4a" d="M 14.632812 40.597656 C 14.488281 40.597656 14.347656 40.515625 14.285156 40.371094 C 14.1875 40.164062 11.933594 35.199219 11.933594 30.066406 C 11.933594 24.933594 14.1875 19.96875 14.285156 19.757812 C 14.371094 19.5625 14.605469 19.480469 14.796875 19.570312 C 14.988281 19.660156 15.074219 19.886719 14.984375 20.082031 C 14.960938 20.132812 12.707031 25.105469 12.707031 30.066406 C 12.707031 35.023438 14.960938 40 14.984375 40.046875 C 15.074219 40.242188 14.988281 40.472656 14.796875 40.5625 C 14.742188 40.585938 14.6875 40.597656 14.632812 40.597656 Z M 14.632812 40.597656 " fill-opacity="1" fill-rule="nonzero"/><path fill="#112a4a" d="M 18.03125 30.453125 L 10.710938 30.453125 C 10.5 30.453125 10.328125 30.28125 10.328125 30.066406 C 10.328125 29.851562 10.5 29.679688 10.710938 29.679688 L 18.03125 29.679688 C 18.246094 29.679688 18.417969 29.851562 18.417969 30.066406 C 18.417969 30.28125 18.246094 30.453125 18.03125 30.453125 Z M 18.03125 30.453125 " fill-opacity="1" fill-rule="nonzero"/><path fill="#112a4a" d="M 41.699219 30.453125 L 23.433594 30.453125 C 23.21875 30.453125 23.046875 30.28125 23.046875 30.066406 C 23.046875 29.851562 23.21875 29.679688 23.433594 29.679688 L 41.699219 29.679688 C 41.914062 29.679688 42.085938 29.851562 42.085938 30.066406 C 42.085938 30.28125 41.914062 30.453125 41.699219 30.453125 Z M 41.699219 30.453125 " fill-opacity="1" fill-rule="nonzero"/><path fill="#112a4a" d="M 26.140625 35.808594 C 19.160156 35.808594 11.421875 34.269531 11.34375 34.25 C 11.136719 34.210938 11 34.007812 11.042969 33.796875 C 11.082031 33.585938 11.292969 33.449219 11.496094 33.492188 C 11.570312 33.507812 19.238281 35.035156 26.140625 35.035156 C 33.046875 35.035156 40.710938 33.507812 40.789062 33.492188 C 40.992188 33.449219 41.199219 33.585938 41.242188 33.796875 C 41.285156 34.007812 41.148438 34.210938 40.941406 34.25 C 40.863281 34.269531 33.125 35.808594 26.140625 35.808594 Z M 26.140625 35.808594 " fill-opacity="1" fill-rule="nonzero"/><path fill="#112a4a" d="M 26.140625 40.453125 C 19.515625 40.453125 12.898438 38.132812 12.835938 38.109375 C 12.632812 38.035156 12.527344 37.816406 12.597656 37.613281 C 12.671875 37.414062 12.890625 37.308594 13.089844 37.378906 C 13.15625 37.402344 19.652344 39.679688 26.140625 39.679688 C 32.628906 39.679688 39.128906 37.402344 39.191406 37.378906 C 39.390625 37.308594 39.613281 37.414062 39.683594 37.613281 C 39.753906 37.816406 39.648438 38.035156 39.449219 38.109375 C 39.382812 38.132812 32.765625 40.453125 26.140625 40.453125 Z M 26.140625 40.453125 " fill-opacity="1" fill-rule="nonzero"/><path fill="#112a4a" d="M 26.140625 44.324219 C 21.027344 44.324219 16.078125 42.0625 15.871094 41.964844 C 15.679688 41.875 15.59375 41.644531 15.683594 41.453125 C 15.769531 41.257812 16.003906 41.175781 16.195312 41.261719 C 16.242188 41.285156 21.199219 43.550781 26.140625 43.550781 C 31.082031 43.550781 36.039062 41.285156 36.089844 41.261719 C 36.28125 41.175781 36.511719 41.257812 36.601562 41.453125 C 36.691406 41.648438 36.605469 41.875 36.410156 41.964844 C 36.203125 42.0625 31.257812 44.324219 26.140625 44.324219 Z M 26.140625 44.324219 " fill-opacity="1" fill-rule="nonzero"/><path fill="#112a4a" d="M 11.417969 26.519531 C 11.238281 26.519531 11.078125 26.390625 11.042969 26.207031 C 11 25.996094 11.136719 25.792969 11.34375 25.75 C 11.421875 25.734375 19.160156 24.195312 26.140625 24.195312 C 33.125 24.195312 40.863281 25.734375 40.941406 25.75 C 41.148438 25.792969 41.285156 25.996094 41.242188 26.207031 C 41.199219 26.417969 40.992188 26.550781 40.789062 26.511719 C 40.710938 26.496094 33.046875 24.96875 26.140625 24.96875 C 19.234375 24.96875 11.570312 26.496094 11.496094 26.511719 C 11.46875 26.515625 11.445312 26.519531 11.417969 26.519531 Z M 11.417969 26.519531 " fill-opacity="1" fill-rule="nonzero"/><path fill="#112a4a" d="M 12.960938 22.648438 C 12.804688 22.648438 12.65625 22.546875 12.597656 22.390625 C 12.527344 22.1875 12.632812 21.964844 12.835938 21.894531 C 12.902344 21.871094 19.515625 19.550781 26.140625 19.550781 C 30.144531 19.550781 34.105469 20.378906 36.722656 21.078125 C 36.929688 21.132812 37.050781 21.34375 37 21.550781 C 36.941406 21.757812 36.734375 21.882812 36.527344 21.824219 C 33.953125 21.140625 30.0625 20.324219 26.140625 20.324219 C 19.652344 20.324219 13.15625 22.601562 13.089844 22.625 C 13.046875 22.640625 13.003906 22.648438 12.960938 22.648438 Z M 12.960938 22.648438 " fill-opacity="1" fill-rule="nonzero"/><path fill="#112a4a" d="M 16.03125 18.777344 C 15.886719 18.777344 15.746094 18.691406 15.683594 18.550781 C 15.59375 18.355469 15.679688 18.125 15.871094 18.035156 C 16.078125 17.941406 21.027344 15.679688 26.140625 15.679688 C 31.257812 15.679688 36.203125 17.941406 36.410156 18.035156 C 36.605469 18.125 36.691406 18.355469 36.601562 18.550781 C 36.511719 18.746094 36.28125 18.828125 36.089844 18.738281 C 36.039062 18.71875 31.085938 16.453125 26.140625 16.453125 C 21.199219 16.453125 16.242188 18.71875 16.195312 18.738281 C 16.140625 18.765625 16.085938 18.777344 16.03125 18.777344 Z M 16.03125 18.777344 " fill-opacity="1" fill-rule="nonzero"/><path fill="#112a4a" d="M 26.140625 45.9375 C 25.929688 45.9375 25.757812 45.761719 25.757812 45.550781 L 25.757812 14.453125 C 25.757812 14.238281 25.929688 14.066406 26.140625 14.066406 C 26.355469 14.066406 26.527344 14.238281 26.527344 14.453125 L 26.527344 45.550781 C 26.527344 45.761719 26.355469 45.9375 26.140625 45.9375 Z M 26.140625 45.9375 " fill-opacity="1" fill-rule="nonzero"/><g clip-path="url(#f9b87296f5)"><path fill="#112a4a" d="M 26.132812 12.257812 C 25.921875 12.257812 25.746094 12.085938 25.746094 11.871094 L 25.746094 2.582031 C 25.746094 2.367188 25.921875 2.195312 26.132812 2.195312 C 26.347656 2.195312 26.519531 2.367188 26.519531 2.582031 L 26.519531 11.871094 C 26.519531 12.085938 26.347656 12.257812 26.132812 12.257812 Z M 26.132812 12.257812 " fill-opacity="1" fill-rule="nonzero"/></g><path fill="#112a4a" d="M 3.375 23.871094 C 3.160156 23.871094 2.988281 23.699219 2.988281 23.484375 C 2.988281 21.6875 4.679688 20.847656 4.75 20.8125 C 4.941406 20.722656 5.171875 20.800781 5.265625 20.992188 C 5.359375 21.183594 5.277344 21.417969 5.085938 21.511719 C 5.03125 21.539062 3.761719 22.179688 3.761719 23.484375 C 3.761719 23.699219 3.589844 23.871094 3.375 23.871094 Z M 3.375 23.871094 " fill-opacity="1" fill-rule="nonzero"/><path fill="#112a4a" d="M 4.917969 21.550781 C 4.863281 21.550781 4.804688 21.539062 4.75 21.511719 C 4.679688 21.476562 2.988281 20.636719 2.988281 18.839844 C 2.988281 18.625 3.160156 18.453125 3.375 18.453125 C 3.589844 18.453125 3.761719 18.625 3.761719 18.839844 C 3.761719 20.15625 5.074219 20.808594 5.085938 20.8125 C 5.277344 20.90625 5.359375 21.136719 5.265625 21.332031 C 5.199219 21.46875 5.0625 21.550781 4.917969 21.550781 Z M 4.917969 21.550781 " fill-opacity="1" fill-rule="nonzero"/><g clip-path="url(#32667f10c7)"><path fill="#112a4a" d="M 1.832031 21.550781 C 1.691406 21.550781 1.554688 21.46875 1.484375 21.332031 C 1.394531 21.140625 1.472656 20.910156 1.664062 20.816406 C 1.71875 20.789062 2.988281 20.144531 2.988281 18.839844 C 2.988281 18.625 3.160156 18.453125 3.375 18.453125 C 3.589844 18.453125 3.761719 18.625 3.761719 18.839844 C 3.761719 20.636719 2.070312 21.476562 2 21.511719 C 1.945312 21.539062 1.890625 21.550781 1.832031 21.550781 Z M 1.832031 21.550781 " fill-opacity="1" fill-rule="nonzero"/></g><g clip-path="url(#cd29b84b63)"><path fill="#112a4a" d="M 3.375 23.871094 C 3.160156 23.871094 2.988281 23.699219 2.988281 23.484375 C 2.988281 22.167969 1.679688 21.519531 1.664062 21.511719 C 1.472656 21.417969 1.390625 21.1875 1.484375 20.996094 C 1.578125 20.800781 1.808594 20.71875 2 20.8125 C 2.070312 20.847656 3.761719 21.6875 3.761719 23.484375 C 3.761719 23.699219 3.589844 23.871094 3.375 23.871094 Z M 3.375 23.871094 " fill-opacity="1" fill-rule="nonzero"/></g><path fill="#112a4a" d="M 39.632812 23.871094 C 39.421875 23.871094 39.25 23.699219 39.25 23.484375 C 39.25 21.6875 40.9375 20.847656 41.011719 20.8125 C 41.203125 20.722656 41.429688 20.800781 41.523438 20.992188 C 41.617188 21.183594 41.535156 21.417969 41.347656 21.511719 C 41.292969 21.539062 40.019531 22.179688 40.019531 23.484375 C 40.019531 23.699219 39.847656 23.871094 39.632812 23.871094 Z M 39.632812 23.871094 " fill-opacity="1" fill-rule="nonzero"/><path fill="#112a4a" d="M 41.175781 21.550781 C 41.121094 21.550781 41.0625 21.539062 41.011719 21.511719 C 40.9375 21.476562 39.25 20.636719 39.25 18.839844 C 39.25 18.625 39.421875 18.453125 39.632812 18.453125 C 39.847656 18.453125 40.019531 18.625 40.019531 18.839844 C 40.019531 20.15625 41.332031 20.808594 41.34375 20.8125 C 41.535156 20.90625 41.617188 21.136719 41.523438 21.332031 C 41.457031 21.46875 41.320312 21.550781 41.175781 21.550781 Z M 41.175781 21.550781 " fill-opacity="1" fill-rule="nonzero"/><path fill="#112a4a" d="M 38.09375 21.550781 C 37.949219 21.550781 37.8125 21.46875 37.746094 21.332031 C 37.652344 21.140625 37.730469 20.910156 37.921875 20.816406 C 37.976562 20.789062 39.25 20.144531 39.25 18.839844 C 39.25 18.625 39.421875 18.453125 39.632812 18.453125 C 39.847656 18.453125 40.019531 18.625 40.019531 18.839844 C 40.019531 20.636719 38.332031 21.476562 38.257812 21.511719 C 38.207031 21.539062 38.148438 21.550781 38.09375 21.550781 Z M 38.09375 21.550781 " fill-opacity="1" fill-rule="nonzero"/><path fill="#112a4a" d="M 39.632812 23.871094 C 39.421875 23.871094 39.25 23.699219 39.25 23.484375 C 39.25 22.167969 37.9375 21.519531 37.925781 21.511719 C 37.730469 21.417969 37.652344 21.1875 37.742188 20.996094 C 37.835938 20.800781 38.070312 20.71875 38.257812 20.8125 C 38.332031 20.847656 40.019531 21.6875 40.019531 23.484375 C 40.019531 23.699219 39.847656 23.871094 39.632812 23.871094 Z M 39.632812 23.871094 " fill-opacity="1" fill-rule="nonzero"/><path fill="#112a4a" d="M 20.734375 32.710938 C 20.519531 32.710938 20.347656 32.539062 20.347656 32.324219 C 20.347656 30.527344 22.035156 29.6875 22.109375 29.652344 C 22.300781 29.558594 22.53125 29.640625 22.621094 29.832031 C 22.714844 30.023438 22.636719 30.253906 22.445312 30.347656 C 22.390625 30.375 21.117188 31.015625 21.117188 32.324219 C 21.117188 32.539062 20.945312 32.710938 20.734375 32.710938 Z M 20.734375 32.710938 " fill-opacity="1" fill-rule="nonzero"/><path fill="#112a4a" d="M 22.277344 30.386719 C 22.21875 30.386719 22.164062 30.375 22.109375 30.347656 C 22.035156 30.316406 20.347656 29.476562 20.347656 27.679688 C 20.347656 27.464844 20.519531 27.292969 20.734375 27.292969 C 20.945312 27.292969 21.117188 27.464844 21.117188 27.679688 C 21.117188 28.996094 22.429688 29.644531 22.445312 29.652344 C 22.636719 29.746094 22.714844 29.976562 22.625 30.167969 C 22.558594 30.308594 22.417969 30.386719 22.277344 30.386719 Z M 22.277344 30.386719 " fill-opacity="1" fill-rule="nonzero"/><path fill="#112a4a" d="M 19.191406 30.386719 C 19.046875 30.386719 18.910156 30.308594 18.84375 30.171875 C 18.75 29.976562 18.832031 29.746094 19.023438 29.652344 C 19.074219 29.625 20.347656 28.984375 20.347656 27.679688 C 20.347656 27.464844 20.519531 27.292969 20.734375 27.292969 C 20.945312 27.292969 21.117188 27.464844 21.117188 27.679688 C 21.117188 29.476562 19.429688 30.316406 19.359375 30.347656 C 19.304688 30.375 19.246094 30.386719 19.191406 30.386719 Z M 19.191406 30.386719 " fill-opacity="1" fill-rule="nonzero"/><path fill="#112a4a" d="M 20.734375 32.710938 C 20.519531 32.710938 20.347656 32.539062 20.347656 32.324219 C 20.347656 31.007812 19.035156 30.355469 19.023438 30.347656 C 18.832031 30.257812 18.75 30.023438 18.84375 29.832031 C 18.9375 29.640625 19.167969 29.558594 19.359375 29.652344 C 19.429688 29.6875 21.117188 30.527344 21.117188 32.324219 C 21.117188 32.539062 20.945312 32.710938 20.734375 32.710938 Z M 20.734375 32.710938 " fill-opacity="1" fill-rule="nonzero"/><path fill="#112a4a" d="M 19.757812 9.859375 C 19.695312 9.859375 19.636719 9.847656 19.578125 9.816406 L 18.804688 9.410156 L 18.03125 9.816406 C 17.902344 9.886719 17.742188 9.875 17.625 9.789062 C 17.503906 9.699219 17.445312 9.554688 17.46875 9.410156 L 17.617188 8.542969 L 16.992188 7.929688 C 16.886719 7.828125 16.847656 7.675781 16.894531 7.535156 C 16.941406 7.394531 17.058594 7.292969 17.207031 7.269531 L 18.070312 7.144531 L 18.457031 6.355469 C 18.589844 6.09375 19.019531 6.09375 19.148438 6.355469 L 19.539062 7.144531 L 20.402344 7.269531 C 20.546875 7.292969 20.667969 7.394531 20.714844 7.535156 C 20.757812 7.675781 20.722656 7.828125 20.617188 7.929688 L 19.992188 8.542969 L 20.140625 9.410156 C 20.164062 9.554688 20.105469 9.699219 19.984375 9.789062 C 19.917969 9.835938 19.839844 9.859375 19.757812 9.859375 Z M 18.804688 8.582031 C 18.867188 8.582031 18.929688 8.597656 18.984375 8.628906 L 19.246094 8.765625 L 19.195312 8.472656 C 19.175781 8.347656 19.214844 8.21875 19.308594 8.128906 L 19.519531 7.921875 L 19.226562 7.882812 C 19.101562 7.863281 18.992188 7.785156 18.9375 7.667969 L 18.804688 7.402344 L 18.671875 7.667969 C 18.617188 7.785156 18.507812 7.863281 18.382812 7.882812 L 18.089844 7.921875 L 18.300781 8.128906 C 18.394531 8.21875 18.433594 8.347656 18.414062 8.472656 L 18.363281 8.765625 L 18.625 8.628906 C 18.679688 8.597656 18.742188 8.582031 18.804688 8.582031 Z M 18.804688 8.582031 " fill-opacity="1" fill-rule="nonzero"/><g clip-path="url(#bcef7730e4)"><path fill="#112a4a" d="M 41.359375 50.117188 C 41.296875 50.117188 41.238281 50.105469 41.179688 50.074219 L 40.40625 49.667969 L 39.632812 50.074219 C 39.503906 50.144531 39.34375 50.132812 39.226562 50.046875 C 39.109375 49.957031 39.046875 49.8125 39.070312 49.667969 L 39.21875 48.800781 L 38.59375 48.1875 C 38.488281 48.085938 38.449219 47.933594 38.496094 47.792969 C 38.542969 47.652344 38.664062 47.550781 38.808594 47.527344 L 39.671875 47.402344 L 40.058594 46.617188 C 40.125 46.484375 40.257812 46.398438 40.40625 46.398438 C 40.550781 46.398438 40.6875 46.484375 40.75 46.613281 L 41.140625 47.402344 L 42.003906 47.527344 C 42.148438 47.550781 42.269531 47.652344 42.316406 47.792969 C 42.359375 47.933594 42.324219 48.085938 42.21875 48.1875 L 41.589844 48.800781 L 41.738281 49.667969 C 41.765625 49.8125 41.707031 49.957031 41.585938 50.046875 C 41.519531 50.09375 41.4375 50.117188 41.359375 50.117188 Z M 40.40625 48.839844 C 40.46875 48.839844 40.527344 48.855469 40.585938 48.886719 L 40.847656 49.023438 L 40.796875 48.730469 C 40.777344 48.605469 40.816406 48.476562 40.90625 48.386719 L 41.121094 48.183594 L 40.828125 48.140625 C 40.703125 48.121094 40.59375 48.042969 40.539062 47.929688 L 40.40625 47.660156 L 40.273438 47.925781 C 40.21875 48.042969 40.109375 48.121094 39.984375 48.140625 L 39.691406 48.183594 L 39.902344 48.386719 C 39.996094 48.476562 40.035156 48.605469 40.015625 48.730469 L 39.964844 49.023438 L 40.226562 48.886719 C 40.28125 48.855469 40.34375 48.839844 40.40625 48.839844 Z M 40.40625 48.839844 " fill-opacity="1" fill-rule="nonzero"/></g><g clip-path="url(#2ec628b3f0)"><path fill="#112a4a" d="M 49.664062 39.355469 C 49.449219 39.355469 49.277344 39.183594 49.277344 38.96875 L 49.277344 35.871094 C 49.277344 35.65625 49.449219 35.484375 49.664062 35.484375 C 49.875 35.484375 50.050781 35.65625 50.050781 35.871094 L 50.050781 38.96875 C 50.050781 39.183594 49.875 39.355469 49.664062 39.355469 Z M 49.664062 39.355469 " fill-opacity="1" fill-rule="nonzero"/></g><g clip-path="url(#ae5458e143)"><path fill="#112a4a" d="M 50.433594 37.808594 L 48.890625 37.808594 C 48.679688 37.808594 48.507812 37.632812 48.507812 37.421875 C 48.507812 37.207031 48.679688 37.035156 48.890625 37.035156 L 50.433594 37.035156 C 50.648438 37.035156 50.820312 37.207031 50.820312 37.421875 C 50.820312 37.632812 50.648438 37.808594 50.433594 37.808594 Z M 50.433594 37.808594 " fill-opacity="1" fill-rule="nonzero"/></g><path fill="#112a4a" d="M 4.917969 48.644531 C 4.703125 48.644531 4.53125 48.472656 4.53125 48.257812 L 4.53125 45.164062 C 4.53125 44.949219 4.703125 44.773438 4.917969 44.773438 C 5.132812 44.773438 5.304688 44.949219 5.304688 45.164062 L 5.304688 48.257812 C 5.304688 48.472656 5.132812 48.644531 4.917969 48.644531 Z M 4.917969 48.644531 " fill-opacity="1" fill-rule="nonzero"/><path fill="#112a4a" d="M 5.691406 47.097656 L 4.148438 47.097656 C 3.933594 47.097656 3.761719 46.925781 3.761719 46.710938 C 3.761719 46.496094 3.933594 46.324219 4.148438 46.324219 L 5.691406 46.324219 C 5.902344 46.324219 6.074219 46.496094 6.074219 46.710938 C 6.074219 46.925781 5.902344 47.097656 5.691406 47.097656 Z M 5.691406 47.097656 " fill-opacity="1" fill-rule="nonzero"/><path fill="#112a4a" d="M 38.863281 13.035156 C 38.648438 13.035156 38.476562 12.859375 38.476562 12.648438 L 38.476562 9.550781 C 38.476562 9.335938 38.648438 9.164062 38.863281 9.164062 C 39.074219 9.164062 39.25 9.335938 39.25 9.550781 L 39.25 12.648438 C 39.25 12.859375 39.074219 13.035156 38.863281 13.035156 Z M 38.863281 13.035156 " fill-opacity="1" fill-rule="nonzero"/><path fill="#112a4a" d="M 39.632812 11.484375 L 38.089844 11.484375 C 37.878906 11.484375 37.707031 11.3125 37.707031 11.097656 C 37.707031 10.882812 37.878906 10.710938 38.089844 10.710938 L 39.632812 10.710938 C 39.847656 10.710938 40.019531 10.882812 40.019531 11.097656 C 40.019531 11.3125 39.847656 11.484375 39.632812 11.484375 Z M 39.632812 11.484375 " fill-opacity="1" fill-rule="nonzero"/></svg>